<svg width="42" height="42" viewBox="0 0 42 42" fill="none" xmlns="http://www.w3.org/2000/svg">
<g clip-path="url(#clip0)">
<path d="M19.4365 19.4503L0.569297 11.5062C0.299004 11.3924 0 11.5909 0 11.8842V33.122C0 33.6587 0.32673 34.1413 0.82507 34.3406L19.125 41.6606C19.3944 41.7684 19.6875 41.5699 19.6875 41.2798V19.8283C19.6875 19.6632 19.5886 19.5144 19.4365 19.4503V19.4503Z" fill="#0D8A72"/>
<path d="M21.1591 17.1934L39.3959 9.51477C39.7237 9.37679 39.7325 8.91545 39.4102 8.76509L21.555 0.432679C21.2032 0.268534 20.7968 0.268534 20.445 0.432679L2.58981 8.76509C2.26751 8.91545 2.27629 9.37679 2.60409 9.51477L20.8409 17.1934C20.9426 17.2363 21.0574 17.2363 21.1591 17.1934V17.1934Z" fill="#0D8A72"/>
<path d="M22.3125 19.8283V41.2798C22.3125 41.5699 22.6056 41.7684 22.875 41.6606L41.1749 34.3406C41.6732 34.1413 42 33.6587 42 33.122V11.8842C42 11.5909 41.701 11.3924 41.4307 11.5062L22.5635 19.4503C22.4114 19.5144 22.3125 19.6632 22.3125 19.8283V19.8283Z" fill="#0D8A72"/>
</g>
<defs>
<clipPath id="clip0">
<rect width="42" height="42" fill="white"/>
</clipPath>
</defs>
</svg>
