<svg width="42" height="42" viewBox="0 0 42 42" fill="none" xmlns="http://www.w3.org/2000/svg">
<path d="M28.4826 24.7088L22.6266 20.3168V11.3703C22.6266 10.4708 21.8995 9.74365 20.9999 9.74365C20.1004 9.74365 19.3732 10.4708 19.3732 11.3703V21.1302C19.3732 21.6426 19.614 22.1258 20.0239 22.4316L26.5305 27.3115C26.8232 27.5311 27.1649 27.6369 27.5048 27.6369C28.001 27.6369 28.489 27.414 28.8078 26.9846C29.348 26.2671 29.2016 25.2472 28.4826 24.7088Z" fill="#0D8A72"/>
<path d="M21 0C9.41989 0 0 9.41989 0 21C0 32.5801 9.41989 42 21 42C32.5801 42 42 32.5801 42 21C42 9.41989 32.5801 0 21 0ZM21 38.7467C11.2157 38.7467 3.25328 30.7843 3.25328 21C3.25328 11.2157 11.2157 3.25328 21 3.25328C30.7859 3.25328 38.7467 11.2157 38.7467 21C38.7467 30.7843 30.7843 38.7467 21 38.7467Z" fill="#0D8A72"/>
</svg>
