<svg width="42" height="42" viewBox="0 0 42 42" fill="none" xmlns="http://www.w3.org/2000/svg">
<path d="M16.1874 0H3.06239C1.3737 0 0 1.3737 0 3.06239V10.9374C0 12.6264 1.3737 14.0001 3.06239 14.0001H16.1874C17.8764 14.0001 19.2501 12.6264 19.2501 10.9374V3.06239C19.2501 1.3737 17.8764 0 16.1874 0Z" fill="#0D8A72"/>
<path d="M16.1874 17.5H3.06239C1.3737 17.5 0 18.8737 0 20.5627V38.9377C0 40.6264 1.3737 42.0001 3.06239 42.0001H16.1874C17.8764 42.0001 19.2501 40.6264 19.2501 38.9377V20.5627C19.2501 18.8737 17.8764 17.5 16.1874 17.5V17.5Z" fill="#0D8A72"/>
<path d="M38.9376 28H25.8126C24.1236 28 22.7499 29.3737 22.7499 31.0627V38.9377C22.7499 40.6264 24.1236 42.0001 25.8126 42.0001H38.9376C40.6263 42.0001 42 40.6264 42 38.9377V31.0627C42 29.3737 40.6263 28 38.9376 28V28Z" fill="#0D8A72"/>
<path d="M38.9376 0H25.8126C24.1236 0 22.7499 1.3737 22.7499 3.06239V21.4374C22.7499 23.1264 24.1236 24.5001 25.8126 24.5001H38.9376C40.6263 24.5001 42 23.1264 42 21.4374V3.06239C42 1.3737 40.6263 0 38.9376 0V0Z" fill="#0D8A72"/>
</svg>
