<svg width="42" height="42" viewBox="0 0 42 42" fill="none" xmlns="http://www.w3.org/2000/svg">
<path d="M41.9835 29.6991V22.6499C41.9835 21.6 41.684 20.5501 41.2336 19.6502L36.7458 12.0011C36.2958 11.1012 35.246 10.5013 34.1962 10.5013H27.447C26.3972 10.5013 25.4971 11.4012 25.4971 12.451V28.4992H23.9973V7.50161C23.9973 5.8518 22.6476 4.50195 20.9976 4.50195H0V31.4989H4.49949C5.2494 28.9492 7.49915 26.9994 10.3486 26.9994C13.1985 26.9994 15.598 28.9492 16.1982 31.4989H27.147C27.8969 28.9492 30.1467 26.9994 32.9962 26.9994C35.3961 26.9994 37.3455 28.3492 38.2456 30.299C38.6956 31.0489 39.4342 31.4989 40.1841 31.4989C41.2336 31.4989 42.1337 30.599 41.9835 29.6991ZM28.4968 21.0001V13.5009H34.4961L38.8454 21.0001H28.4968Z" fill="#0D8A72"/>
<path d="M32.9963 28.4993C30.4466 28.4993 28.4968 30.449 28.4968 32.9988C28.4968 35.5485 30.4466 37.4982 32.9963 37.4982C35.5459 37.4982 37.4957 35.5485 37.4957 32.9988C37.4957 30.449 35.5459 28.4993 32.9963 28.4993ZM32.9963 35.0985C31.7963 35.0985 30.8967 34.1986 30.8967 32.9988C30.8967 31.7989 31.7964 30.899 32.9963 30.899C34.1962 30.899 35.0958 31.7989 35.0958 32.9988C35.0958 34.1986 34.1962 35.0985 32.9963 35.0985Z" fill="#0D8A72"/>
<path d="M10.4988 28.4993C7.9492 28.4993 5.99933 30.449 5.99933 32.9988C5.99933 35.5485 7.9492 37.4982 10.4988 37.4982C13.0484 37.4982 14.9983 35.5485 14.9983 32.9988C14.9983 30.449 13.0484 28.4993 10.4988 28.4993ZM10.4988 35.0985C9.29886 35.0985 8.39924 34.1986 8.39924 32.9988C8.39924 31.7989 9.29895 30.899 10.4988 30.899C11.6987 30.899 12.5984 31.7989 12.5984 32.9988C12.5984 34.1986 11.6988 35.0985 10.4988 35.0985Z" fill="#0D8A72"/>
<path d="M10.4988 33.7486C10.913 33.7486 11.2487 33.4129 11.2487 32.9987C11.2487 32.5845 10.913 32.2488 10.4988 32.2488C10.0847 32.2488 9.7489 32.5845 9.7489 32.9987C9.7489 33.4129 10.0847 33.7486 10.4988 33.7486Z" fill="#0D8A72"/>
<path d="M32.9963 33.7486C33.4104 33.7486 33.7462 33.4129 33.7462 32.9987C33.7462 32.5845 33.4104 32.2488 32.9963 32.2488C32.5821 32.2488 32.2463 32.5845 32.2463 32.9987C32.2463 33.4129 32.5821 33.7486 32.9963 33.7486Z" fill="#0D8A72"/>
</svg>
