<svg width="42" height="42" viewBox="0 0 42 42" fill="none" xmlns="http://www.w3.org/2000/svg">
<g clip-path="url(#clip0)">
<path d="M21 28C20.6413 28 20.2983 27.853 20.0515 27.594L10.864 17.969C10.0678 17.136 10.6593 15.75 11.8125 15.75H16.625V5.6875C16.625 4.48175 17.6068 3.5 18.8125 3.5H23.1875C24.3933 3.5 25.375 4.48175 25.375 5.6875V15.75H30.1875C31.3408 15.75 31.9323 17.136 31.136 17.969L21.9485 27.594C21.7018 27.853 21.3588 28 21 28V28Z" fill="#0D8A72"/>
<path d="M38.9375 38.5H3.0625C1.37375 38.5 0 37.1262 0 35.4375V34.5625C0 32.8738 1.37375 31.5 3.0625 31.5H38.9375C40.6262 31.5 42 32.8738 42 34.5625V35.4375C42 37.1262 40.6262 38.5 38.9375 38.5Z" fill="#0D8A72"/>
</g>
<defs>
<clipPath id="clip0">
<rect width="42" height="42" fill="white"/>
</clipPath>
</defs>
</svg>
