<svg width="42" height="42" viewBox="0 0 42 42" fill="none" xmlns="http://www.w3.org/2000/svg">
<g clip-path="url(#clip0)">
<path d="M26.8411 19.0783C25.193 18.1675 23.4408 17.4736 21.7059 16.7536C20.6997 16.3372 19.7368 15.8515 18.8867 15.1749C17.2126 13.839 17.5335 11.6704 19.4939 10.8117C20.0491 10.5688 20.6303 10.4907 21.2201 10.456C23.4928 10.3346 25.6528 10.7509 27.7086 11.7398C28.7322 12.2343 29.0705 12.0781 29.4174 11.0112C29.7818 9.8835 30.0854 8.73848 30.4237 7.60213C30.6492 6.83879 30.3716 6.33567 29.6516 6.01472C28.3331 5.43353 26.9799 5.01716 25.5573 4.79163C23.701 4.50538 23.701 4.4967 23.6923 2.63171C23.6837 0.00336705 23.6837 0.003367 21.0467 0.003367C20.665 0.003367 20.2833 -0.00530739 19.9016 0.003367C18.6699 0.0380646 18.4617 0.254924 18.427 1.49536C18.4096 2.05052 18.427 2.60568 18.4183 3.16952C18.4096 4.81765 18.401 4.79163 16.8222 5.36414C13.0055 6.75204 10.6461 9.35436 10.3945 13.5181C10.169 17.2047 12.0947 19.6942 15.1221 21.5072C16.987 22.6262 19.0515 23.2854 21.0293 24.1615C21.8013 24.4998 22.5387 24.8902 23.1806 25.428C25.0802 26.9981 24.7333 29.6091 22.4779 30.5979C21.2722 31.1271 19.9971 31.2572 18.6872 31.0924C16.6661 30.8408 14.7317 30.3117 12.9101 29.3662C11.8431 28.811 11.5309 28.9585 11.1665 30.1122C10.8543 31.1097 10.5767 32.116 10.2991 33.1222C9.92609 34.4754 10.0649 34.7963 11.3574 35.4296C13.0055 36.2276 14.7664 36.6353 16.562 36.9216C17.9672 37.1471 18.0106 37.2078 18.028 38.6651C18.0366 39.3244 18.0366 39.9923 18.0453 40.6516C18.054 41.4843 18.453 41.9701 19.3118 41.9874C20.2833 42.0048 21.2635 42.0048 22.235 41.9787C23.0331 41.9614 23.4408 41.5277 23.4408 40.721C23.4408 39.8188 23.4842 38.908 23.4495 38.0059C23.4061 37.0864 23.8051 36.618 24.6899 36.3751C26.7284 35.8199 28.4633 34.7269 29.7991 33.0962C33.5118 28.5855 32.0978 21.9843 26.8411 19.0783Z" fill="#0D8A72"/>
</g>
<defs>
<clipPath id="clip0">
<rect width="42" height="42" fill="white"/>
</clipPath>
</defs>
</svg>
