<svg width="42" height="42" viewBox="0 0 42 42" fill="none" xmlns="http://www.w3.org/2000/svg">
<g clip-path="url(#clip0)">
<path d="M11.3059 32.9454L19.8371 41.5179C19.8376 41.5184 19.8382 41.5189 19.8387 41.5194C20.48 42.1619 21.5221 42.1598 22.1613 41.5193C22.1618 41.5188 22.1624 41.5184 22.1629 41.5178L30.6941 32.9452C31.3332 32.303 31.3309 31.2641 30.6886 30.6249C30.0463 29.9857 29.0076 29.9882 28.3684 30.6304L22.6406 36.3861L22.6406 1.64108C22.6406 0.734965 21.9061 0.00045743 21 0.000457351C20.0939 0.000457272 19.3594 0.734965 19.3594 1.64108L19.3594 36.3861L13.6316 30.6306C12.9925 29.9884 11.9537 29.9859 11.3115 30.6251C10.6691 31.2644 10.6669 32.3032 11.3059 32.9454Z" fill="#EF6454"/>
</g>
<defs>
<clipPath id="clip0">
<rect width="42" height="42" fill="white" transform="translate(42 42) rotate(-180)"/>
</clipPath>
</defs>
</svg>
