<svg width="42" height="42" viewBox="0 0 42 42" fill="none" xmlns="http://www.w3.org/2000/svg">
<path d="M41.9913 1.5773C41.9887 1.55138 41.9839 1.52627 41.9802 1.50076C41.9758 1.46984 41.9722 1.43883 41.9661 1.40807C41.9603 1.3787 41.9522 1.35023 41.9449 1.32144C41.9383 1.29495 41.9325 1.26829 41.9245 1.24204C41.916 1.21373 41.9053 1.18642 41.8954 1.15877C41.886 1.13261 41.8773 1.10619 41.8667 1.08035C41.856 1.05451 41.8434 1.02982 41.8316 1.00464C41.819 0.978059 41.8072 0.951234 41.7933 0.925148C41.7803 0.901031 41.7656 0.878063 41.7516 0.854602C41.7363 0.82909 41.7219 0.80325 41.7052 0.778312C41.6879 0.752391 41.6686 0.728027 41.65 0.70309C41.6344 0.682336 41.6199 0.661008 41.6034 0.640746C41.567 0.596531 41.5288 0.553957 41.4884 0.513516C41.488 0.513188 41.4878 0.512859 41.4875 0.512531C41.4871 0.512203 41.4868 0.512039 41.4865 0.511711C41.446 0.47127 41.4035 0.432961 41.3592 0.396621C41.339 0.379969 41.3176 0.365531 41.2968 0.349945C41.272 0.331324 41.2476 0.312047 41.2217 0.294738C41.1967 0.278086 41.1709 0.263648 41.1453 0.248391C41.1218 0.234363 41.0989 0.21968 41.0748 0.206719C41.0487 0.192773 41.022 0.180961 40.9953 0.16841C40.9702 0.156516 40.9454 0.143965 40.9196 0.133219C40.8938 0.122555 40.8674 0.113859 40.8411 0.104508C40.8135 0.094582 40.7862 0.084 40.758 0.0754688C40.7318 0.0675117 40.705 0.0616875 40.6785 0.055043C40.6497 0.0477422 40.6213 0.0397031 40.592 0.0338789C40.5612 0.0278086 40.5302 0.0241172 40.4993 0.0196875C40.4738 0.0160781 40.4487 0.0111562 40.4228 0.00861328C40.3653 0.00303516 40.3077 0 40.25 0H28C27.0335 0 26.25 0.783481 26.25 1.74997C26.25 2.71646 27.0335 3.49995 28 3.49995H36.0251L23.2626 16.2625C22.5792 16.9459 22.5792 18.054 23.2626 18.7374C23.946 19.4208 25.0541 19.4208 25.7375 18.7374L38.5 5.97491V14C38.5 14.9665 39.2834 15.75 40.2499 15.75C41.2164 15.75 42 14.9665 42 14V1.75014C42 1.69239 41.9969 1.63472 41.9913 1.5773Z" fill="#0D8A72"/>
<path d="M16.2625 23.2626L3.50003 36.0251V28C3.50003 27.0335 2.71655 26.25 1.75005 26.25C0.78348 26.25 0 27.0335 0 28V40.25C0 40.3077 0.00303516 40.3652 0.00869531 40.4227C0.0112383 40.4485 0.0160781 40.4736 0.0197695 40.4992C0.0241992 40.5301 0.0278086 40.5612 0.0339609 40.5919C0.0397852 40.6213 0.0478242 40.6496 0.055125 40.6784C0.0617695 40.705 0.0675938 40.7317 0.0755508 40.7579C0.084082 40.7861 0.0946641 40.8135 0.10459 40.841C0.114023 40.8673 0.122637 40.8937 0.133301 40.9195C0.143965 40.9454 0.156598 40.9701 0.168492 40.9952C0.181043 41.0218 0.192855 41.0486 0.206801 41.0747C0.219762 41.0989 0.234445 41.1217 0.248473 41.1452C0.26373 41.1707 0.278168 41.1966 0.29482 41.2216C0.312129 41.2475 0.331406 41.2718 0.350027 41.2967C0.365613 41.3175 0.380051 41.3389 0.396703 41.3591C0.433043 41.4034 0.471352 41.446 0.511793 41.4864C0.512121 41.4868 0.512285 41.4871 0.512613 41.4874C0.512941 41.4877 0.51327 41.4879 0.513598 41.4883C0.554039 41.5286 0.596613 41.5669 0.640828 41.6033C0.66109 41.6199 0.682418 41.6343 0.703172 41.6499C0.728109 41.6685 0.752473 41.6878 0.778395 41.7051C0.80325 41.7218 0.82909 41.7362 0.854684 41.7515C0.878145 41.7655 0.901031 41.7802 0.92523 41.7932C0.951316 41.8071 0.978141 41.8189 1.00472 41.8315C1.0299 41.8434 1.05468 41.8559 1.08043 41.8666C1.10627 41.8772 1.13261 41.8859 1.15886 41.8953C1.1865 41.9052 1.21382 41.9158 1.24212 41.9244C1.26837 41.9324 1.29503 41.9382 1.32152 41.9448C1.35032 41.9521 1.37878 41.9602 1.40815 41.966C1.43891 41.9721 1.46992 41.9757 1.50084 41.9801C1.52636 41.9837 1.55154 41.9886 1.57738 41.9912C1.6348 41.9968 1.69239 41.9999 1.74997 41.9999H1.75005H14C14.9665 41.9999 15.75 41.2164 15.75 40.2499C15.75 39.2834 14.9665 38.4999 14 38.4999H5.97491L18.7375 25.7374C19.4209 25.054 19.4209 23.9459 18.7375 23.2625C18.0541 22.5791 16.946 22.5792 16.2625 23.2626Z" fill="#0D8A72"/>
</svg>
