<svg width="42" height="42" viewBox="0 0 42 42" fill="none" xmlns="http://www.w3.org/2000/svg">
<g clip-path="url(#clip0)">
<path d="M37.9865 0H4.01362C2.42964 0 1.49853 1.7852 2.4061 3.08421C2.42357 3.10899 1.86831 2.35284 15.3693 20.7301C15.6722 21.1683 15.8322 21.681 15.8322 22.2139V39.9254C15.8322 41.6477 17.8066 42.5977 19.1454 41.5846L24.9001 37.2466C25.6941 36.657 26.1679 35.7151 26.1679 34.7258V22.2139C26.1679 21.681 26.3279 21.1683 26.6308 20.7301C40.1214 2.36695 39.5765 3.10882 39.594 3.08421C40.5012 1.78577 39.5711 0 37.9865 0V0ZM24.6381 19.286C24.0802 20.0453 23.707 21.1041 23.707 22.2138V34.7257C23.707 34.94 23.6041 35.1442 23.4318 35.2716C23.2803 35.3832 24.4278 34.5207 18.2931 39.1452V22.2139C18.2931 21.17 17.977 20.1658 17.3791 19.3099C17.3643 19.2887 17.7809 19.8561 8.91847 7.79285H33.0816L24.6381 19.286ZM34.8895 5.3319H7.11063L5.00142 2.46088H36.9987L34.8895 5.3319Z" fill="#0D8A72"/>
</g>
<defs>
<clipPath id="clip0">
<rect width="42" height="42" fill="white"/>
</clipPath>
</defs>
</svg>
