<svg width="42" height="42" viewBox="0 0 42 42" fill="none" xmlns="http://www.w3.org/2000/svg">
<path d="M13.9079 31.392C14.9444 31.3358 15.9709 31.2202 16.9848 31.0443V40.664H13.9079V31.392ZM1.29199 40.664H4.36912V31.4329H1.29199V40.664ZM7.60007 31.4329V40.664H10.677V31.4329H7.60007ZM32.7545 40.664H35.8316V17.2745C34.9715 18.9198 33.9436 20.4644 32.7545 21.8938V40.664ZM26.4469 40.664H29.5236V25.1606C28.551 25.9885 27.5238 26.741 26.4469 27.4161V40.664ZM20.1388 30.2925V40.664H23.216V29.1397C23.0509 29.2137 22.885 29.2868 22.718 29.3572C21.8713 29.7153 21.0107 30.0265 20.1388 30.2925V30.2925ZM34.194 1.33276L27.6666 7.86002L29.8425 10.0359L32.5483 7.3301C31.4101 17.4149 22.83 25.2786 12.446 25.2786H1.29199V28.3557H12.446C18.6721 28.3557 24.5255 25.9311 28.928 21.5286C32.8304 17.6261 35.1775 12.5824 35.66 7.15057L38.4911 9.98161L40.667 7.8057L34.194 1.33276Z" fill="#0D8A72"/>
</svg>
