<svg width="42" height="42" viewBox="0 0 42 42" fill="none" xmlns="http://www.w3.org/2000/svg">
<g clip-path="url(#clip0)">
<path d="M32.6673 19.3612L13.9768 0.67097C13.5445 0.23834 12.9675 0 12.3521 0C11.7368 0 11.1598 0.23834 10.7275 0.67097L9.35104 2.04706C8.45539 2.94373 8.45539 4.40109 9.35104 5.2964L25.0459 20.9913L9.33363 36.7036C8.90134 37.1362 8.66266 37.713 8.66266 38.3279C8.66266 38.9436 8.90134 39.5203 9.33363 39.9533L10.7101 41.329C11.1427 41.7617 11.7194 42 12.3347 42C12.95 42 13.5271 41.7617 13.9594 41.329L32.6673 22.6218C33.1007 22.1878 33.3387 21.6083 33.3373 20.9923C33.3387 20.3739 33.1007 19.7948 32.6673 19.3612Z" fill="#23E1BD"/>
</g>
<defs>
<clipPath id="clip0">
<rect width="42" height="42" fill="white"/>
</clipPath>
</defs>
</svg>
