<svg width="42" height="42" viewBox="0 0 42 42" fill="none" xmlns="http://www.w3.org/2000/svg">
<path d="M41.0648 17.4398L36.1512 16.234C35.8805 15.3727 35.5359 14.5359 35.1176 13.7238L37.6277 9.54023C37.923 9.04805 37.8492 8.43281 37.4555 8.03906L33.9609 4.54453C33.5672 4.15078 32.952 4.07695 32.4598 4.37227L28.2762 6.88242C27.4641 6.46406 26.6273 6.11953 25.766 5.84883L24.5848 0.935156C24.4371 0.39375 23.9449 0 23.3789 0H18.457C17.891 0 17.3988 0.39375 17.2512 0.935156L16.0699 5.84883C15.2086 6.11953 14.3719 6.46406 13.5598 6.88242L9.37617 4.37227C8.88398 4.07695 8.26875 4.15078 7.875 4.54453L4.38047 8.03906C3.98672 8.43281 3.91289 9.04805 4.2082 9.54023L6.71836 13.7238C6.3 14.5359 5.95547 15.3727 5.68477 16.234L0.935156 17.4398C0.39375 17.5629 0 18.0551 0 18.6211V23.543C0 24.109 0.39375 24.6012 0.935156 24.7242L5.68477 25.9301C5.95547 26.7914 6.3 27.6281 6.71836 28.4402L4.2082 32.6238C3.91289 33.116 3.98672 33.7312 4.38047 34.125L7.875 37.6195C8.26875 38.0133 8.88398 38.0871 9.37617 37.7918L13.5598 35.2816C14.3719 35.7 15.2086 36.0445 16.0699 36.3152L17.2512 41.0648C17.3988 41.6063 17.891 42 18.457 42H23.3789C23.9449 42 24.4371 41.6063 24.5848 41.0648L25.766 36.3152C26.6273 36.0445 27.4641 35.7 28.2762 35.2816L32.4598 37.7918C32.952 38.0871 33.5672 38.0133 33.9609 37.6195L37.4555 34.125C37.8492 33.7312 37.923 33.116 37.6277 32.6238L35.1176 28.4402C35.5359 27.6281 35.8805 26.7914 36.1512 25.9301L41.0648 24.7242C41.6063 24.6012 42 24.109 42 23.543V18.6211C42 18.0551 41.6063 17.5629 41.0648 17.4398ZM20.918 27.2344C17.5219 27.2344 14.7656 24.4781 14.7656 21.082C14.7656 17.6859 17.5219 14.9297 20.918 14.9297C24.3141 14.9297 27.0703 17.6859 27.0703 21.082C27.0703 24.4781 24.3141 27.2344 20.918 27.2344Z" fill="#0D8A72"/>
</svg>
