<svg width="42" height="42" viewBox="0 0 42 42" fill="none" xmlns="http://www.w3.org/2000/svg">
<path d="M20.8265 36.634H1.39433C0.624243 36.634 0 37.2583 0 38.0284V39.4227C0 40.1928 0.624243 40.817 1.39433 40.817H20.8265C21.5964 40.817 22.2208 40.1928 22.2208 39.4227V38.0284C22.2208 37.2583 21.5966 36.634 20.8265 36.634Z" fill="#0D8A72"/>
<path d="M1.39433 32.0326H18.2081C18.978 32.0326 19.6024 31.4084 19.6024 30.6383V29.2439C19.6024 28.4739 18.978 27.8496 18.2081 27.8496H1.39433C0.624244 27.8496 0 28.4739 0 29.2439V30.6383C0 31.4084 0.624244 32.0326 1.39433 32.0326Z" fill="#0D8A72"/>
<path d="M1.39434 23.2484H15.5894C16.3593 23.2484 16.9837 22.6242 16.9837 21.8541V20.4598C16.9837 19.6897 16.3593 19.0654 15.5894 19.0654H1.39434C0.624244 19.0654 0 19.6897 0 20.4598V21.8541C0 22.6242 0.624244 23.2484 1.39434 23.2484Z" fill="#0D8A72"/>
<path d="M1.39433 13.4882H12.9708C13.7407 13.4882 14.3651 12.8639 14.3651 12.0938V10.6995C14.3651 9.92942 13.7407 9.30518 12.9708 9.30518H1.39433C0.624244 9.30518 0 9.92942 0 10.6995V12.0938C0 12.8639 0.624244 13.4882 1.39433 13.4882Z" fill="#0D8A72"/>
<path d="M1.39433 4.70375H10.3521C11.122 4.70375 11.7464 4.07951 11.7464 3.30942V1.91509C11.7464 1.145 11.122 0.520752 10.3521 0.520752H1.39433C0.624243 0.520752 0 1.145 0 1.91509V3.30942C0 4.07951 0.624243 4.70375 1.39433 4.70375Z" fill="#0D8A72"/>
<path d="M41.5916 30.2398L40.6058 29.2539C40.3444 28.9925 39.9897 28.8455 39.6199 28.8455C39.2501 28.8455 38.8955 28.9925 38.634 29.2539L33.8383 34.0494V2.61235C33.8383 1.84226 33.214 1.21802 32.444 1.21802H31.0496C30.2797 1.21802 29.6553 1.84226 29.6553 2.61235V34.0493L24.8596 29.2538C24.598 28.9922 24.2435 28.8454 23.8737 28.8454C23.5039 28.8454 23.1492 28.9923 22.8877 29.2538L21.902 30.2397C21.3575 30.7842 21.3575 31.6671 21.902 32.2116L30.7609 41.0706C31.0224 41.332 31.377 41.479 31.7468 41.479C32.1166 41.479 32.4711 41.332 32.7327 41.0706L41.5916 32.2116C42.1361 31.6671 42.1361 30.7843 41.5916 30.2398Z" fill="#0D8A72"/>
</svg>
