<svg width="42" height="42" viewBox="0 0 42 42" fill="none" xmlns="http://www.w3.org/2000/svg">
<path d="M39.0335 9.07208H34.3549V4.54421C34.3549 3.37575 33.4045 2.42529 32.236 2.42529H9.76397C8.59552 2.42529 7.64505 3.37575 7.64505 4.54421V9.07208H2.96648C1.33085 9.07208 0 10.4029 0 12.0386V36.608C0 38.2436 1.33085 39.5745 2.96648 39.5745H39.0335C40.6692 39.5745 42 38.2436 42 36.608V12.0386C42 10.4028 40.6692 9.07208 39.0335 9.07208ZM10.1878 4.96799H31.8124V9.07208H10.1878V4.96799ZM2.96648 11.6148H39.0335C39.2632 11.6148 39.4573 11.8089 39.4573 12.0386V19.6631H26.6046V18.524C26.6046 17.3555 25.6542 16.4051 24.4857 16.4051H17.5143C16.3458 16.4051 15.3954 17.3555 15.3954 18.524V19.6631H2.5427V12.0386C2.5427 11.8087 2.73679 11.6148 2.96648 11.6148ZM24.0619 18.9479V23.052H17.9381V18.9479H24.0619V18.9479ZM39.0335 37.0318H2.96648C2.73679 37.0318 2.5427 36.8379 2.5427 36.608V22.2058H15.3954V23.4756C15.3954 24.6441 16.3458 25.5946 17.5143 25.5946H24.4857C25.6542 25.5946 26.6046 24.6441 26.6046 23.4756V22.2058H39.4573V36.608C39.4573 36.8379 39.2632 37.0318 39.0335 37.0318Z" fill="#0D8A72"/>
</svg>
