<svg width="42" height="42" viewBox="0 0 42 42" fill="none" xmlns="http://www.w3.org/2000/svg">
<g clip-path="url(#clip0)">
<path d="M30.6941 9.05464L22.1629 0.482051C22.1624 0.481558 22.1618 0.481148 22.1613 0.480574C21.52 -0.161895 20.4779 -0.159844 19.8387 0.480738C19.8382 0.48123 19.8376 0.48164 19.8371 0.482215L11.3059 9.05481C10.6668 9.69703 10.6691 10.7359 11.3114 11.3751C11.9537 12.0143 12.9924 12.0118 13.6316 11.3696L19.3594 5.61393V40.3589C19.3594 41.265 20.0939 41.9995 21 41.9995C21.9061 41.9995 22.6406 41.265 22.6406 40.3589V5.61393L28.3684 11.3694C29.0075 12.0116 30.0463 12.0141 30.6885 11.3749C31.3309 10.7356 31.3331 9.69679 30.6941 9.05464Z" fill="#37BC7F"/>
</g>
<defs>
<clipPath id="clip0">
<rect width="42" height="42" fill="white"/>
</clipPath>
</defs>
</svg>
