<svg width="238" height="127" viewBox="0 0 238 127" fill="none" xmlns="http://www.w3.org/2000/svg">
<g clip-path="url(#clip0)">
<path d="M11.132 126.634L11.1814 126.374C11.1923 126.316 12.3158 120.608 16.5274 117.296C20.7392 113.983 26.544 114.243 26.6021 114.246L26.8667 114.259L26.8174 114.52C26.8064 114.577 25.6829 120.285 21.4713 123.598C17.2596 126.91 11.4547 126.651 11.3967 126.648L11.132 126.634ZM16.813 117.66C13.2521 120.46 11.9699 125.04 11.6955 126.191C12.8781 126.196 17.6283 126.031 21.1857 123.234C24.7428 120.436 26.0278 115.855 26.3032 114.702C25.1199 114.697 20.3703 114.862 16.813 117.66Z" fill="#50B49C"/>
<path d="M18.4879 118.93C16.5586 123.906 11.4796 126.573 11.4796 126.573C11.4796 126.573 9.52867 121.173 11.458 116.198C13.3873 111.222 18.4663 108.554 18.4663 108.554C18.4663 108.554 20.4172 113.954 18.4879 118.93Z" fill="#50B49C"/>
<path d="M231.014 126.648C230.956 126.651 225.151 126.91 220.939 123.598C216.728 120.285 215.604 114.577 215.593 114.52L215.544 114.259L215.808 114.246C215.866 114.243 221.671 113.983 225.883 117.296C230.095 120.608 231.218 126.316 231.229 126.374L231.279 126.634L231.014 126.648ZM216.107 114.702C216.383 115.855 217.668 120.436 221.225 123.234C224.782 126.032 229.532 126.196 230.715 126.191C230.441 125.04 229.158 120.46 225.598 117.66C222.04 114.862 217.291 114.697 216.107 114.702H216.107Z" fill="#50B49C"/>
<path d="M223.923 118.93C225.852 123.906 230.931 126.573 230.931 126.573C230.931 126.573 232.882 121.173 230.953 116.198C229.023 111.222 223.944 108.554 223.944 108.554C223.944 108.554 221.993 113.954 223.923 118.93Z" fill="#50B49C"/>
<path d="M136.41 125.444L133.037 124.022L130.723 107.091H99.9074L97.3992 123.953L94.3813 125.464C94.2369 125.536 94.1211 125.655 94.0527 125.802C93.9843 125.948 93.9672 126.113 94.0043 126.271C94.0414 126.428 94.1305 126.568 94.2571 126.668C94.3837 126.769 94.5404 126.823 94.7018 126.823H136.132C136.298 126.823 136.458 126.766 136.586 126.661C136.714 126.556 136.802 126.41 136.835 126.248C136.867 126.085 136.843 125.917 136.766 125.77C136.688 125.624 136.563 125.509 136.41 125.444V125.444Z" fill="#999999"/>
<path d="M191.172 109.344H39.7972C39.003 109.342 38.2419 109.025 37.6809 108.462C37.1199 107.899 36.8049 107.136 36.8049 106.341V84.9683H194.164V106.341C194.164 107.136 193.849 107.899 193.288 108.462C192.727 109.025 191.966 109.342 191.172 109.344Z" fill="#CCCCCC"/>
<path d="M194.322 95.0693H36.6667V3.6198C36.6678 2.66008 37.0491 1.74 37.7269 1.06139C38.4046 0.382786 39.3236 0.0010757 40.2821 0H190.707C191.665 0.00107507 192.584 0.382784 193.262 1.06139C193.94 1.74 194.321 2.66008 194.322 3.6198V95.0693Z" fill="#3F3D56"/>
<path d="M184.906 88.4318H46.0828C45.3439 88.431 44.6355 88.1367 44.1129 87.6136C43.5904 87.0904 43.2965 86.3811 43.2957 85.6412V9.428C43.2965 8.6881 43.5904 7.97875 44.1129 7.45555C44.6354 6.93236 45.3439 6.63806 46.0828 6.63721H184.906C185.645 6.63806 186.353 6.93236 186.876 7.45555C187.398 7.97875 187.692 8.6881 187.693 9.428V85.6412C187.692 86.3811 187.398 87.0904 186.876 87.6136C186.353 88.1367 185.645 88.431 184.906 88.4318V88.4318Z" fill="#F4FAF9"/>
<path d="M237.647 127H0.367106C0.287198 127.002 0.208974 126.977 0.14462 126.93C0.0802673 126.882 0.0333992 126.815 0.0113197 126.738C-0.00246489 126.685 -0.00406932 126.631 0.00662833 126.578C0.017326 126.525 0.0400397 126.475 0.0730248 126.432C0.10601 126.389 0.148385 126.354 0.19689 126.33C0.245395 126.306 0.298737 126.294 0.35281 126.294H237.618C237.703 126.291 237.785 126.316 237.853 126.367C237.921 126.417 237.97 126.488 237.992 126.57C238.003 126.622 238.003 126.675 237.991 126.727C237.979 126.778 237.956 126.827 237.923 126.868C237.89 126.909 237.848 126.942 237.8 126.965C237.752 126.988 237.7 127 237.647 127Z" fill="#008B72"/>
<path d="M73.6006 35.46H50.7599V37.6077H73.6006V35.46Z" fill="#A8A05A"/>
<path d="M73.6006 40.6685H50.7599V42.8162H73.6006V40.6685Z" fill="#A8A05A"/>
<path d="M73.6006 45.9922H50.7599V48.1399H73.6006V45.9922Z" fill="#A8A05A"/>
<path d="M73.6006 51.3154H50.7599V53.4632H73.6006V51.3154Z" fill="#A8A05A"/>
<path d="M68.1906 58.0801H56.1699V59.9439H68.1906V58.0801Z" fill="#FDDB6A"/>
<path d="M109.142 48.7808H108.924V49.4368H109.142V48.7808Z" fill="#E5E5E5"/>
<path d="M109.142 63.4146H108.924V62.0168H109.142V63.4146ZM109.142 60.6191H108.924V59.2212H109.142V60.6191ZM109.142 57.8234H108.924V56.4257H109.142V57.8234ZM109.142 55.0279H108.924V53.63H109.142V55.0279ZM109.142 52.2323H108.924V50.8345H109.142V52.2323Z" fill="#E5E5E5"/>
<path d="M109.142 64.8125H108.924V65.4685H109.142V64.8125Z" fill="#E5E5E5"/>
<path d="M133.057 48.7808H132.839V49.4368H133.057V48.7808Z" fill="#E5E5E5"/>
<path d="M133.057 63.4146H132.839V62.0168H133.057V63.4146ZM133.057 60.6191H132.839V59.2212H133.057V60.6191ZM133.057 57.8234H132.839V56.4257H133.057V57.8234ZM133.057 55.0279H132.839V53.63H133.057V55.0279ZM133.057 52.2323H132.839V50.8345H133.057V52.2323Z" fill="#E5E5E5"/>
<path d="M133.057 64.8125H132.839V65.4685H133.057V64.8125Z" fill="#E5E5E5"/>
<path d="M145.121 35.9468H144.902V36.6028H145.121V35.9468Z" fill="#E5E5E5"/>
<path d="M145.121 63.4687H144.902V62.1254H145.121V63.4687ZM145.121 60.7821H144.902V59.4388H145.121V60.7821ZM145.121 58.0955H144.902V56.7522H145.121V58.0955ZM145.121 55.4089H144.902V54.0655H145.121V55.4089ZM145.121 52.7222H144.902V51.3789H145.121V52.7222ZM145.121 50.0356H144.902V48.6923H145.121V50.0356ZM145.121 47.349H144.902V46.0057H145.121V47.349ZM145.121 44.6624H144.902V43.3191H145.121V44.6624ZM145.121 41.9757H144.902V40.6324H145.121V41.9757ZM145.121 39.2891H144.902V37.9458H145.121V39.2891Z" fill="#E5E5E5"/>
<path d="M145.121 64.8125H144.902V65.4685H145.121V64.8125Z" fill="#E5E5E5"/>
<path d="M157.064 30.6987H156.845V31.3548H157.064V30.6987Z" fill="#E5E5E5"/>
<path d="M157.064 63.4741H156.845V62.1357H157.064V63.4741ZM157.064 60.7974H156.845V59.4591H157.064V60.7974ZM157.064 58.1208H156.845V56.7825H157.064V58.1208ZM157.064 55.4442H156.845V54.1059H157.064V55.4442ZM157.064 52.7676H156.845V51.4292H157.064V52.7676ZM157.064 50.0909H156.845V48.7526H157.064V50.0909ZM157.064 47.4143H156.845V46.076H157.064V47.4143ZM157.064 44.7377H156.845V43.3994H157.064V44.7377ZM157.064 42.0611H156.845V40.7227H157.064V42.0611ZM157.064 39.3845H156.845V38.0461H157.064V39.3845ZM157.064 36.7078H156.845V35.3695H157.064V36.7078ZM157.064 34.0312H156.845V32.6929H157.064V34.0312Z" fill="#E5E5E5"/>
<path d="M157.064 64.8125H156.845V65.4685H157.064V64.8125Z" fill="#E5E5E5"/>
<path d="M121.154 39.9922H120.936V40.6482H121.154V39.9922Z" fill="#E5E5E5"/>
<path d="M121.154 63.5408H120.936V62.269H121.154V63.5408ZM121.154 60.9972H120.936V59.7255H121.154V60.9972ZM121.154 58.4537H120.936V57.1819H121.154V58.4537ZM121.154 55.9101H120.936V54.6383H121.154V55.9101ZM121.154 53.3665H120.936V52.0947H121.154V53.3665ZM121.154 50.8229H120.936V49.5511H121.154V50.8229ZM121.154 48.2793H120.936V47.0076H121.154V48.2793ZM121.154 45.7358H120.936V44.464H121.154V45.7358ZM121.154 43.1922H120.936V41.9204H121.154V43.1922Z" fill="#E5E5E5"/>
<path d="M121.154 64.8125H120.936V65.4685H121.154V64.8125Z" fill="#E5E5E5"/>
<path d="M169.177 65.773H96.8727C96.8127 65.773 96.7552 65.7492 96.7127 65.7067C96.6703 65.6642 96.6464 65.6066 96.6464 65.5465V30.8472C96.6464 30.7871 96.6703 30.7294 96.7127 30.687C96.7552 30.6445 96.8127 30.6206 96.8727 30.6206C96.9327 30.6206 96.9903 30.6445 97.0327 30.687C97.0752 30.7294 97.099 30.7871 97.099 30.8472V65.3199H169.177C169.237 65.3199 169.295 65.3438 169.337 65.3863C169.38 65.4288 169.403 65.4864 169.403 65.5465C169.403 65.6066 169.38 65.6642 169.337 65.7067C169.295 65.7492 169.237 65.773 169.177 65.773V65.773Z" fill="#3F3D56"/>
<path d="M133.047 49.0851L121.026 40.0695L109.168 48.9619L108.897 48.5992L121.026 39.5034L132.99 48.4761L144.879 35.4489L144.927 35.4295L156.92 30.5913L157.089 31.0119L145.144 35.8306L133.047 49.0851Z" fill="#A8A05A"/>
<path d="M109.033 50.1402C109.783 50.1402 110.391 49.5316 110.391 48.7808C110.391 48.03 109.783 47.4214 109.033 47.4214C108.283 47.4214 107.675 48.03 107.675 48.7808C107.675 49.5316 108.283 50.1402 109.033 50.1402Z" fill="#FDDB6A"/>
<path d="M121.026 41.3042C121.776 41.3042 122.383 40.6956 122.383 39.9448C122.383 39.1941 121.776 38.5854 121.026 38.5854C120.276 38.5854 119.668 39.1941 119.668 39.9448C119.668 40.6956 120.276 41.3042 121.026 41.3042Z" fill="#FDDB6A"/>
<path d="M133.019 50.1402C133.768 50.1402 134.376 49.5316 134.376 48.7808C134.376 48.03 133.768 47.4214 133.019 47.4214C132.269 47.4214 131.661 48.03 131.661 48.7808C131.661 49.5316 132.269 50.1402 133.019 50.1402Z" fill="#FDDB6A"/>
<path d="M145.011 36.9991C145.761 36.9991 146.369 36.3904 146.369 35.6397C146.369 34.8889 145.761 34.2803 145.011 34.2803C144.262 34.2803 143.654 34.8889 143.654 35.6397C143.654 36.3904 144.262 36.9991 145.011 36.9991Z" fill="#FDDB6A"/>
<path d="M157.004 32.0147C157.754 32.0147 158.362 31.4061 158.362 30.6553C158.362 29.9045 157.754 29.2959 157.004 29.2959C156.254 29.2959 155.646 29.9045 155.646 30.6553C155.646 31.4061 156.254 32.0147 157.004 32.0147Z" fill="#FDDB6A"/>
<path d="M80.7393 6.63721H80.277V88.4318H80.7393V6.63721Z" fill="#E5E5E5"/>
<path d="M189.734 87.5947C189.894 87.4044 190.01 87.1814 190.074 86.9413C190.138 86.7012 190.149 86.4499 190.106 86.2052C190.063 85.9604 189.966 85.7281 189.824 85.5247C189.681 85.3212 189.496 85.1515 189.281 85.0275L190.409 79.0923L187.515 80.3L186.887 85.7511C186.703 86.1268 186.663 86.5571 186.774 86.9603C186.886 87.3636 187.142 87.7119 187.493 87.9391C187.844 88.1664 188.266 88.2568 188.679 88.1934C189.092 88.1299 189.467 87.9169 189.734 87.5947V87.5947Z" fill="#FFB7B7"/>
<path d="M204.166 124.015H201.715L200.549 114.549L204.166 114.55L204.166 124.015Z" fill="#FFB7B7"/>
<path d="M204.791 126.393L196.888 126.393V126.293C196.888 125.476 197.213 124.693 197.789 124.115C198.366 123.538 199.149 123.213 199.964 123.213H199.964L204.791 123.214L204.791 126.393Z" fill="#2F2E41"/>
<path d="M190.772 124.015H188.321L187.155 114.549L190.773 114.55L190.772 124.015Z" fill="#FFB7B7"/>
<path d="M190.797 126.393L182.895 126.393V126.293C182.895 125.476 183.219 124.693 183.796 124.115C184.373 123.538 185.155 123.213 185.971 123.213H185.971L190.798 123.214L190.797 126.393Z" fill="#2F2E41"/>
<path d="M190.571 84.0386L188.172 89.572L186.193 121.377L191.191 121.177L192.556 106.016L196.767 92.5113L199.188 107.566L200.187 120.777L204.322 120.956L205.97 84.0386H190.571Z" fill="#2F3B5D"/>
<path d="M202.563 56.7334L195.61 56.9075L191.528 59.0057L191.304 74.4856L188.758 85.1731C188.758 85.1731 204.665 86.2693 206.864 84.668L204.265 72.4583L207.75 59.263L202.563 56.7334Z" fill="#178774"/>
<path d="M192.27 59.2478L191.528 59.0059C191.528 59.0059 189.172 60.5197 189.396 64.1798C189.396 64.1798 189.308 66.0738 189.392 67.3342C189.489 68.78 186.593 83.1469 186.593 83.1469H190.791L192.591 70.1365L192.27 59.2478Z" fill="#178774"/>
<path d="M207.642 87.7949C207.482 87.6046 207.366 87.3815 207.302 87.1415C207.237 86.9014 207.226 86.6501 207.27 86.4053C207.313 86.1606 207.409 85.9283 207.552 85.7248C207.694 85.5214 207.88 85.3517 208.095 85.2277L206.966 79.2925L209.861 80.5002L210.489 85.9513C210.673 86.327 210.713 86.7573 210.601 87.1605C210.489 87.5638 210.234 87.912 209.883 88.1393C209.532 88.3665 209.11 88.457 208.697 88.3935C208.284 88.3301 207.908 88.1171 207.642 87.7949V87.7949Z" fill="#FFB7B7"/>
<path d="M206.704 59.448L207.447 59.2061C207.447 59.2061 209.803 60.7199 209.579 64.38C209.579 64.38 209.667 66.2739 209.583 67.5344C209.486 68.9802 210.782 83.3471 210.782 83.3471H206.584L204.785 70.3367L206.704 59.448Z" fill="#178774"/>
<path d="M204.269 50.239C204.269 51.1934 203.987 52.1265 203.457 52.9201C202.927 53.7137 202.175 54.3322 201.294 54.6975C200.413 55.0627 199.444 55.1583 198.509 54.9721C197.574 54.7859 196.716 54.3263 196.041 53.6514C195.367 52.9764 194.908 52.1166 194.722 51.1804C194.536 50.2443 194.632 49.274 194.997 48.3922C195.361 47.5104 195.979 46.7567 196.772 46.2264C197.564 45.6961 198.496 45.4131 199.45 45.4131V45.4131C200.081 45.4115 200.706 45.5345 201.29 45.7749C201.874 46.0154 202.405 46.3686 202.853 46.8145C203.3 47.2604 203.656 47.7902 203.899 48.3737C204.142 48.9571 204.268 49.5827 204.269 50.2149C204.269 50.2229 204.269 50.2309 204.269 50.239Z" fill="#FFB7B7"/>
<path d="M194.646 43.757C195.21 42.5413 196.303 42.7817 197.259 43.1937C198.469 42.925 199.62 42.1204 200.923 42.5962C202.208 44.4665 206.52 43.9162 205.602 46.9611C205.601 47.6907 206.974 47.2661 206.734 48.461C207.461 50.7607 204.11 55.1159 202.186 54.1988C202.662 53.3257 203.749 51.3426 202.1 51.1459C198.554 54.4496 201.734 44.8548 197.279 47.6451C195.803 48.9969 193.784 45.1091 194.646 43.757Z" fill="#2F2E41"/>
</g>
<defs>
<clipPath id="clip0">
<rect width="238" height="127" fill="white"/>
</clipPath>
</defs>
</svg>
